o HighlightPentagon
v 0.30901699437494745 1 0.95105651629515353
v -0.80901699437494734 1 0.58778525229247325
v -0.80901699437494734 0 0.58778525229247325
v 0.30901699437494745 0 0.95105651629515353
v -0.80901699437494756 1 -0.587785252292473
v -0.80901699437494756 0 -0.587785252292473
v 0.30901699437494723 1 -0.95105651629515364
v 0.30901699437494723 0 -0.95105651629515364
v 1 1 0
v 1 0 0
vn -0.36327126400268028 0 1.1180339887498949
vn -1.1755705045849463 0 2.2204460492503131E-16
vn -0.36327126400268062 0 -1.1180339887498949
vn 0.95105651629515364 0 -0.69098300562505277
vn 0.95105651629515353 0 0.69098300562505255
vn 0 1 0
vn 0 -1 0
g HighlightPentagon
f 1//1 2//1 3//1 4//1
f 2//2 5//2 6//2 3//2
f 5//3 7//3 8//3 6//3
f 7//4 9//4 10//4 8//4
f 9//5 1//5 4//5 10//5
f 1//6 9//6 7//6
f 1//6 7//6 5//6
f 5//6 2//6 1//6
f 8//7 10//7 4//7
f 6//7 8//7 4//7
f 4//7 3//7 6//7
